<?xml version="1.0" encoding="UTF-8"?>
<svg width="683px" height="489px" viewBox="0 0 683 489" version="1.1" xmlns="http://www.w3.org/2000/svg" xmlns:xlink="http://www.w3.org/1999/xlink">
    <!-- Generator: Sketch 46.2 (44496) - http://www.bohemiancoding.com/sketch -->
    <title>zipifypages_hero</title>
    <desc>Created with Sketch.</desc>
    <defs>
        <polygon id="path-1" points="4 344 341 344 341 4 4 4"></polygon>
    </defs>
    <g id="Mockups" stroke="none" stroke-width="1" fill="none" fill-rule="evenodd">
        <g id="Zipify-Pages-sales-page" transform="translate(-709.000000, -175.000000)">
            <g id="Hero-section" transform="translate(-307.000000, -539.000000)">
                <g id="zipifypages_hero" transform="translate(1017.000000, 715.000000)">
                    <g id="Blocks" opacity="0.5">
                        <g id="Page-1" transform="translate(383.000000, 0.000000)">
                            <g id="Group-4" stroke-width="2" stroke="#A9A9AF">
                                <polygon id="Stroke-3" points="0 170 298 170 298 0 0 0"></polygon>
                            </g>
                            <polygon id="Stroke-5" stroke="#A9A9AF" stroke-width="2" points="13 156 284 156 284 50 13 50"></polygon>
                            <polygon id="Stroke-7" stroke="#A9A9AF" stroke-width="2" points="158 141 266 141 266 64 158 64"></polygon>
                            <path d="M202.038835,97.4819851 L207.91689,107.096453 L218.367216,88.2656666 C218.686558,87.6922753 219.598576,87.6922753 219.916565,88.2656666 L233.308625,112.397168 C235.634678,108.461937 237,103.852376 237,98.902145 C237,84.5968036 225.805445,73 211.999323,73 C204.930503,73 198.558551,76.0534137 194.010636,80.940558 C194.21496,81.176083 194.398988,81.4284312 194.551893,81.7032104 C194.944305,81.4831067 195.404373,81.32609 195.926687,81.32609 C197.217585,81.32609 198.393467,82.055096 199.019972,83.1962709 C201.287841,83.4121688 203.071284,85.3945044 203.071284,87.8016262 C203.071284,90.3503435 201.067278,92.4266087 198.605911,92.4266087 L187.891721,92.4266087 C187.867365,92.4266087 187.845715,92.419599 187.820005,92.419599 C187.303104,94.4944624 187,96.6590495 187,98.902145 C187,104.106126 188.49387,108.941399 191.044545,113 L200.531434,97.4819851 C200.857541,96.9450442 201.712728,96.9450442 202.038835,97.4819851 Z" id="Stroke-9" stroke="#A9A9AF" stroke-width="2"></path>
                            <polyline id="Stroke-11" stroke="#A9A9AF" stroke-width="2" points="241 126.579518 227.14713 102 223.197704 106.180933 220.508618 103.335656 216.026807 109.027649 211.828844 102.50752 199 128"></polyline>
                            <path d="M201.564149,97.4085043 C201.238858,96.8638319 200.385811,96.8638319 200.06052,97.4085043 L190.597373,113.149963 L183.138616,125.559391 C182.964497,125.848082 182.953699,126.213567 183.110271,126.513635 C183.265493,126.813702 183.565139,127 183.89043,127 L198.139815,127 L217.732889,127 L239.108991,127 C239.427534,127 239.721781,126.822235 239.881052,126.532122 C240.038974,126.240587 240.040323,125.883635 239.881052,125.593522 L232.755685,112.538451" id="Stroke-13" stroke="#A9A9AF" stroke-width="2"></path>
                            <path d="M198.453606,93 C200.959634,93 203,90.9170726 203,88.3570423 C203,85.9405651 201.184198,83.9505251 198.875181,83.733788 C198.237308,82.5895854 197.041469,81.8563386 195.727147,81.8563386 C195.193979,81.8563386 194.725563,82.0139656 194.326032,82.2363321 C194.17173,81.9590776 193.982985,81.707156 193.774954,81.4707156 C192.9938,80.5770272 191.884756,80 190.727492,80 C188.59482,80 186.838259,81.6733788 186.653647,83.8041572 C184.57195,84.229187 183,86.1094511 183,88.3570423 C183,90.8917397 185.000413,92.952149 187.471998,92.9929631 C187.498175,92.9929631 187.520218,93 187.545016,93 L198.453606,93 Z" id="Stroke-15" stroke="#A9A9AF" stroke-width="2"></path>
                            <path d="M142.277528,86 L33.7238275,86 C32.7751803,86 32,85.1002753 32,84.0007865 C32,82.8997247 32.7751803,82 33.7238275,82 L142.277528,82 C143.22482,82 144,82.8997247 144,84.0007865 C144,85.1002753 143.22482,86 142.277528,86" id="Fill-17" fill="#A9A9AF" fill-rule="nonzero"></path>
                            <path d="M142.277528,93 L33.7238275,93 C32.7751803,93 32,92.1002753 32,91.0007865 C32,89.8997247 32.7751803,89 33.7238275,89 L142.277528,89 C143.22482,89 144,89.8997247 144,91.0007865 C144,92.1002753 143.22482,93 142.277528,93" id="Fill-19" fill="#A9A9AF" fill-rule="nonzero"></path>
                            <path d="M142.277528,101 L33.7238275,101 C32.7751803,101 32,100.100275 32,99.0007865 C32,97.8997247 32.7751803,97 33.7238275,97 L142.277528,97 C143.22482,97 144,97.8997247 144,99.0007865 C144,100.100275 143.22482,101 142.277528,101" id="Fill-21" fill="#A9A9AF" fill-rule="nonzero"></path>
                            <path d="M142.277528,108 L33.7238275,108 C32.7751803,108 32,107.100275 32,106.000786 C32,104.898152 32.7751803,104 33.7238275,104 L142.277528,104 C143.22482,104 144,104.898152 144,106.000786 C144,107.100275 143.22482,108 142.277528,108" id="Fill-23" fill="#A9A9AF" fill-rule="nonzero"></path>
                            <path d="M142.277528,71 L33.7238275,71 C32.7751803,71 32,70.1002753 32,69.0007865 C32,67.8997247 32.7751803,67 33.7238275,67 L142.277528,67 C143.22482,67 144,67.8997247 144,69.0007865 C144,70.1002753 143.22482,71 142.277528,71" id="Fill-25" fill="#A9A9AF" fill-rule="nonzero"></path>
                            <path d="M142.277528,78 L33.7238275,78 C32.7751803,78 32,77.1002753 32,76.0007865 C32,74.8997247 32.7751803,74 33.7238275,74 L142.277528,74 C143.22482,74 144,74.8997247 144,76.0007865 C144,77.1002753 143.22482,78 142.277528,78" id="Fill-27" fill="#A9A9AF" fill-rule="nonzero"></path>
                            <path d="M142.277528,116 L33.7238275,116 C32.7751803,116 32,115.100629 32,114.001572 C32,112.899371 32.7751803,112 33.7238275,112 L142.277528,112 C143.22482,112 144,112.899371 144,114.001572 C144,115.100629 143.22482,116 142.277528,116" id="Fill-29" fill="#A9A9AF" fill-rule="nonzero"></path>
                            <path d="M142.277528,123 L33.7238275,123 C32.7751803,123 32,122.100629 32,121 C32,119.899371 32.7751803,119 33.7238275,119 L142.277528,119 C143.22482,119 144,119.899371 144,121 C144,122.100629 143.22482,123 142.277528,123" id="Fill-31" fill="#A9A9AF" fill-rule="nonzero"></path>
                            <path d="M142.277528,131 L33.7238275,131 C32.7751803,131 32,130.101848 32,129.000786 C32,127.899725 32.7751803,127 33.7238275,127 L142.277528,127 C143.22482,127 144,127.899725 144,129.000786 C144,130.101848 143.22482,131 142.277528,131" id="Fill-33" fill="#A9A9AF" fill-rule="nonzero"></path>
                            <path d="M93.2888191,138 L33.7125272,138 C32.7700987,138 32,137.100275 32,136.000786 C32,134.899725 32.7700987,134 33.7125272,134 L93.2888191,134 C94.2299013,134 95,134.899725 95,136.000786 C95,137.100275 94.2299013,138 93.2888191,138" id="Fill-35" fill="#A9A9AF" fill-rule="nonzero"></path>
                        </g>
                        <g id="Page-1" transform="translate(249.000000, 374.000000)">
                            <polygon id="Stroke-1" stroke="#A9A9AF" stroke-width="2" points="0 113 207 113 207 0 0 0"></polygon>
                            <polygon id="Stroke-3" stroke="#A9A9AF" stroke-width="2" points="9 104 197 104 197 34 9 34"></polygon>
                            <g id="Group-21" transform="translate(55.000000, 62.000000)" fill-rule="nonzero" fill="#A9A9AF">
                                <polygon id="Fill-5" points="5.26845 13.2225333 3.29362347 13.2225333 3.29362347 3.08466667 0.0291336735 4.80293333 0.0291336735 2.99133333 4.01579694 0.713066667 5.26845 0.713066667"></polygon>
                                <path d="M19.8265561,13.2225333 L11.2269031,13.2225333 L11.2269031,11.9345333 L15.6311173,7.75226667 C16.7509133,6.72466667 17.7568316,5.84826667 17.7568316,4.354 C17.7568316,3.06506667 16.807852,2.18866667 15.4413214,2.18866667 C13.9599643,2.18866667 13.0299643,3.08466667 12.9350663,4.82066667 L11.0750663,4.44733333 C11.1699643,2.002 12.9160867,0.451733333 15.460301,0.451733333 C17.9855357,0.451733333 19.7126786,2.01973333 19.7126786,4.31666667 C19.7126786,6.10866667 18.763699,7.266 16.8458112,9.05893333 L14.3405051,11.4118667 L19.8265561,11.4118667 L19.8265561,13.2225333 Z" id="Fill-7"></path>
                                <path d="M27.6065755,10.2913067 C27.6065755,10.9633067 27.0941265,11.4673067 26.372902,11.4673067 C25.6516776,11.4673067 25.120249,10.9633067 25.120249,10.2913067 C25.120249,9.65570667 25.6516776,9.09664 26.372902,9.09664 C27.0941265,9.09664 27.6065755,9.65570667 27.6065755,10.2913067 M27.6065755,4.16677333 C27.6065755,4.83970667 27.0941265,5.34370667 26.372902,5.34370667 C25.6516776,5.34370667 25.120249,4.83970667 25.120249,4.16677333 C25.120249,3.53304 25.6516776,2.99170667 26.372902,2.99170667 C27.0941265,2.99170667 27.6065755,3.53304 27.6065755,4.16677333" id="Fill-9"></path>
                                <path d="M37.9512122,5.39952 C40.5134571,5.39952 42.2225694,6.85645333 42.2225694,9.28312 C42.2225694,11.7480533 40.4005286,13.4840533 37.6285592,13.4840533 C35.0653653,13.4840533 32.9776102,11.9524533 32.9776102,9.17112 L34.9524367,8.79778667 C34.9524367,10.7204533 36.1291714,11.6733867 37.685498,11.6733867 C39.2237939,11.6733867 40.2667224,10.7400533 40.2667224,9.32045333 C40.2667224,7.97645333 39.2797837,7.19245333 37.7993755,7.19245333 L33.6798551,7.19245333 L33.9265898,0.713253333 L41.6721612,0.713253333 L41.6721612,2.52392 L35.8055694,2.52392 L35.6736612,5.39952 L37.9512122,5.39952 Z" id="Fill-11"></path>
                                <path d="M56.0208276,13.2225333 L47.4202255,13.2225333 L47.4202255,11.9345333 L51.8253888,7.75226667 C52.9451847,6.72466667 53.9511031,5.84826667 53.9511031,4.354 C53.9511031,3.06506667 53.0021235,2.18866667 51.6355929,2.18866667 C50.1542357,2.18866667 49.2242357,3.08466667 49.1293378,4.82066667 L47.2683888,4.44733333 C47.3642357,2.002 49.1103582,0.451733333 51.6536235,0.451733333 C54.1798071,0.451733333 55.90695,2.01973333 55.90695,4.31666667 C55.90695,6.10866667 54.9579704,7.266 53.0400827,9.05893333 L50.5347765,11.4118667 L56.0208276,11.4118667 L56.0208276,13.2225333 Z" id="Fill-13"></path>
                                <path d="M63.800752,10.2913067 C63.800752,10.9633067 63.2883031,11.4673067 62.5670786,11.4673067 C61.8449051,11.4673067 61.3144255,10.9633067 61.3144255,10.2913067 C61.3144255,9.65570667 61.8449051,9.09664 62.5670786,9.09664 C63.2883031,9.09664 63.800752,9.65570667 63.800752,10.2913067 M63.800752,4.16677333 C63.800752,4.83970667 63.2883031,5.34370667 62.5670786,5.34370667 C61.8449051,5.34370667 61.3144255,4.83970667 61.3144255,4.16677333 C61.3144255,3.53304 61.8449051,2.99170667 62.5670786,2.99170667 C63.2883031,2.99170667 63.800752,3.53304 63.800752,4.16677333" id="Fill-15"></path>
                                <path d="M77.6573724,13.2225333 L69.0567704,13.2225333 L69.0567704,11.9345333 L73.4619337,7.75226667 C74.5817296,6.72466667 75.587648,5.84826667 75.587648,4.354 C75.587648,3.06506667 74.6386684,2.18866667 73.2721378,2.18866667 C71.7907806,2.18866667 70.8607806,3.08466667 70.7658827,4.82066667 L68.9049337,4.44733333 C69.0007806,2.002 70.7469031,0.451733333 73.2901684,0.451733333 C75.816352,0.451733333 77.5434949,2.01973333 77.5434949,4.31666667 C77.5434949,6.10866667 76.5945153,7.266 74.6766276,9.05893333 L72.1713214,11.4118667 L77.6573724,11.4118667 L77.6573724,13.2225333 Z" id="Fill-17"></path>
                                <path d="M92.1005571,9.58216 C92.1005571,11.9154933 90.3164755,13.4844267 87.6773633,13.4844267 C85.0202204,13.4844267 83.1972306,11.8594933 83.0074347,9.47016 L84.9243735,9.09589333 C85.0961388,10.7208267 86.0451184,11.7288267 87.6773633,11.7288267 C89.1777,11.7288267 90.2405571,10.87016 90.2405571,9.60082667 C90.2405571,8.44256 89.3674959,7.73416 87.8671592,7.73416 L86.064098,7.73416 L86.064098,5.99722667 L87.7532816,5.99722667 C89.1577714,5.99722667 90.012802,5.32429333 90.012802,4.22389333 C90.012802,3.00962667 89.0818531,2.20696 87.6583837,2.20696 C86.1969551,2.20696 85.1711082,3.08429333 85.0581796,4.80256 L83.178251,4.42922667 C83.3680469,2.07629333 85.0961388,0.452293333 87.6583837,0.452293333 C90.1826694,0.452293333 91.8917816,1.98202667 91.8917816,4.22389333 C91.8917816,5.49229333 91.2654551,6.44522667 90.2405571,6.87456 C91.3983122,7.28522667 92.1005571,8.25589333 92.1005571,9.58216" id="Fill-19"></path>
                            </g>
                            <polygon id="Stroke-22" stroke="#A9A9AF" stroke-width="2" points="35 86 172 86 172 52 35 52"></polygon>
                        </g>
                        <g id="Page-1" transform="translate(0.000000, 131.000000)">
                            <polygon id="Stroke-1" stroke="#A9A9AF" stroke-width="2" stroke-linejoin="bevel" points="0 165 303 165 303 0 0 0"></polygon>
                            <polygon id="Stroke-3" stroke="#A9A9AF" stroke-width="2" stroke-linejoin="bevel" points="14 152 290 152 290 49 14 49"></polygon>
                            <g id="Group-40" transform="translate(27.000000, 64.000000)">
                                <path d="M112.45604,9.72482883 L34.3637251,9.72482883 C33.4010677,9.72482883 32.6119365,8.93897297 32.6119365,7.97863514 C32.6119365,7.01692342 33.4010677,6.23106757 34.3637251,6.23106757 L112.45604,6.23106757 C113.418697,6.23106757 114.206451,7.01692342 114.206451,7.97863514 C114.206451,8.93897297 113.418697,9.72482883 112.45604,9.72482883" id="Fill-4" fill="#A9A9AF" fill-rule="nonzero"></path>
                                <path d="M112.45604,17.0422185 L34.3637251,17.0422185 C33.4010677,17.0422185 32.6119365,16.2563626 32.6119365,15.2960248 C32.6119365,14.3343131 33.4010677,13.5484572 34.3637251,13.5484572 L112.45604,13.5484572 C113.418697,13.5484572 114.206451,14.3343131 114.206451,15.2960248 C114.206451,16.2563626 113.418697,17.0422185 112.45604,17.0422185" id="Fill-6" fill="#A9A9AF" fill-rule="nonzero"></path>
                                <path d="M112.45604,24.3597455 L34.3637251,24.3597455 C33.4010677,24.3597455 32.6119365,23.5738896 32.6119365,22.6135518 C32.6119365,21.6518401 33.4010677,20.8659842 34.3637251,20.8659842 L112.45604,20.8659842 C113.418697,20.8659842 114.206451,21.6518401 114.206451,22.6135518 C114.206451,23.5738896 113.418697,24.3597455 112.45604,24.3597455" id="Fill-8" fill="#A9A9AF" fill-rule="nonzero"></path>
                                <path d="M112.45604,31.6772725 L2.14155584,31.6772725 C1.17889839,31.6772725 0.389767179,30.8914167 0.389767179,29.9310788 C0.389767179,28.9693671 1.17889839,28.1835113 2.14155584,28.1835113 L112.45604,28.1835113 C113.418697,28.1835113 114.206451,28.9693671 114.206451,29.9310788 C114.206451,30.8914167 113.418697,31.6772725 112.45604,31.6772725" id="Fill-10" fill="#A9A9AF" fill-rule="nonzero"></path>
                                <path d="M112.45604,38.9947995 L2.14155584,38.9947995 C1.17889839,38.9947995 0.389767179,38.2089437 0.389767179,37.2486059 C0.389767179,36.2868941 1.17889839,35.5010383 2.14155584,35.5010383 L112.45604,35.5010383 C113.418697,35.5010383 114.206451,36.2868941 114.206451,37.2486059 C114.206451,38.2089437 113.418697,38.9947995 112.45604,38.9947995" id="Fill-12" fill="#A9A9AF" fill-rule="nonzero"></path>
                                <path d="M112.45604,46.3121892 L2.14155584,46.3121892 C1.17889839,46.3121892 0.389767179,45.5263333 0.389767179,44.5659955 C0.389767179,43.6029099 1.17889839,42.8184279 2.14155584,42.8184279 L112.45604,42.8184279 C113.418697,42.8184279 114.206451,43.6029099 114.206451,44.5659955 C114.206451,45.5263333 113.418697,46.3121892 112.45604,46.3121892" id="Fill-14" fill="#A9A9AF" fill-rule="nonzero"></path>
                                <path d="M112.45604,53.6297162 L2.14155584,53.6297162 C1.17889839,53.6297162 0.389767179,52.8438604 0.389767179,51.8835225 C0.389767179,50.9204369 1.17889839,50.1345811 2.14155584,50.1345811 L112.45604,50.1345811 C113.418697,50.1345811 114.206451,50.9204369 114.206451,51.8835225 C114.206451,52.8438604 113.418697,53.6297162 112.45604,53.6297162" id="Fill-16" fill="#A9A9AF" fill-rule="nonzero"></path>
                                <path d="M63.0842451,60.9472432 L2.14210672,60.9472432 C1.17807208,60.9472432 0.390318055,60.1613874 0.390318055,59.1996757 C0.390318055,58.237964 1.17807208,57.4521081 2.14210672,57.4521081 L63.0842451,57.4521081 C64.0469026,57.4521081 64.8346566,58.237964 64.8346566,59.1996757 C64.8346566,60.1613874 64.0469026,60.9472432 63.0842451,60.9472432" id="Fill-18" fill="#A9A9AF" fill-rule="nonzero"></path>
                                <path d="M25.7291423,20.3870518 C25.7291423,22.0123446 24.4084148,23.3298896 22.7791963,23.3298896 L16.8806815,23.3298896 C15.2528401,23.3298896 13.9321127,22.0123446 13.9321127,20.3870518 L13.9321127,9.59802027 C13.9321127,5.27718694 17.464611,1.75320045 21.7972581,1.75320045 L22.7791963,1.75320045 C23.3176785,1.75320045 23.7625116,2.19696171 23.7625116,2.73277252 L23.7625116,4.69466441 C23.7625116,5.2318491 23.3176785,5.67561036 22.7791963,5.67561036 L21.7972581,5.67561036 C19.6309346,5.67561036 17.8639968,7.43829054 17.8639968,9.59802027 L17.8639968,10.0898671 C17.8639968,10.9018266 18.5250491,11.5599122 19.3375926,11.5599122 L22.7791963,11.5599122 C24.4084148,11.5599122 25.7291423,12.8774572 25.7291423,14.50275 L25.7291423,20.3870518 Z M11.965482,20.3870518 C11.965482,22.0123446 10.6447545,23.3298896 9.01553599,23.3298896 L3.11702118,23.3298896 C1.48780263,23.3298896 0.167075176,22.0123446 0.167075176,20.3870518 L0.167075176,9.59802027 C0.167075176,5.27718694 3.70095073,1.75320045 8.03222065,1.75320045 L9.01553599,1.75320045 C9.55401819,1.75320045 9.99885132,2.19696171 9.99885132,2.73277252 L9.99885132,4.69466441 C9.99885132,5.2318491 9.55401819,5.67561036 9.01553599,5.67561036 L8.03222065,5.67561036 C5.86727429,5.67561036 4.10033651,7.43829054 4.10033651,9.59802027 L4.10033651,10.0898671 C4.10033651,10.9018266 4.76001164,11.5599122 5.57393232,11.5599122 L9.01553599,11.5599122 C10.6447545,11.5599122 11.965482,12.8774572 11.965482,14.50275 L11.965482,20.3870518 Z" id="Stroke-20" stroke="#A9A9AF" stroke-width="2" stroke-linejoin="bevel"></path>
                                <path d="M246.700618,9.72482883 L168.608303,9.72482883 C167.645646,9.72482883 166.856515,8.93897297 166.856515,7.97863514 C166.856515,7.01692342 167.645646,6.23106757 168.608303,6.23106757 L246.700618,6.23106757 C247.663275,6.23106757 248.451029,7.01692342 248.451029,7.97863514 C248.451029,8.93897297 247.663275,9.72482883 246.700618,9.72482883" id="Fill-22" fill="#A9A9AF" fill-rule="nonzero"></path>
                                <path d="M246.700618,17.0422185 L168.608303,17.0422185 C167.645646,17.0422185 166.856515,16.2563626 166.856515,15.2960248 C166.856515,14.3343131 167.645646,13.5484572 168.608303,13.5484572 L246.700618,13.5484572 C247.663275,13.5484572 248.451029,14.3343131 248.451029,15.2960248 C248.451029,16.2563626 247.663275,17.0422185 246.700618,17.0422185" id="Fill-24" fill="#A9A9AF" fill-rule="nonzero"></path>
                                <path d="M246.700618,24.3597455 L168.608303,24.3597455 C167.645646,24.3597455 166.856515,23.5738896 166.856515,22.6135518 C166.856515,21.6518401 167.645646,20.8659842 168.608303,20.8659842 L246.700618,20.8659842 C247.663275,20.8659842 248.451029,21.6518401 248.451029,22.6135518 C248.451029,23.5738896 247.663275,24.3597455 246.700618,24.3597455" id="Fill-26" fill="#A9A9AF" fill-rule="nonzero"></path>
                                <path d="M246.700618,31.6772725 L136.386134,31.6772725 C135.423477,31.6772725 134.634345,30.8914167 134.634345,29.9310788 C134.634345,28.9693671 135.423477,28.1835113 136.386134,28.1835113 L246.700618,28.1835113 C247.663275,28.1835113 248.451029,28.9693671 248.451029,29.9310788 C248.451029,30.8914167 247.663275,31.6772725 246.700618,31.6772725" id="Fill-28" fill="#A9A9AF" fill-rule="nonzero"></path>
                                <path d="M246.700618,38.9947995 L136.386134,38.9947995 C135.423477,38.9947995 134.634345,38.2089437 134.634345,37.2486059 C134.634345,36.2868941 135.423477,35.5010383 136.386134,35.5010383 L246.700618,35.5010383 C247.663275,35.5010383 248.451029,36.2868941 248.451029,37.2486059 C248.451029,38.2089437 247.663275,38.9947995 246.700618,38.9947995" id="Fill-30" fill="#A9A9AF" fill-rule="nonzero"></path>
                                <path d="M246.700618,46.3121892 L136.386134,46.3121892 C135.423477,46.3121892 134.634345,45.5263333 134.634345,44.5659955 C134.634345,43.6029099 135.423477,42.8184279 136.386134,42.8184279 L246.700618,42.8184279 C247.663275,42.8184279 248.451029,43.6029099 248.451029,44.5659955 C248.451029,45.5263333 247.663275,46.3121892 246.700618,46.3121892" id="Fill-32" fill="#A9A9AF" fill-rule="nonzero"></path>
                                <path d="M246.700618,53.6297162 L136.386134,53.6297162 C135.423477,53.6297162 134.634345,52.8438604 134.634345,51.8835225 C134.634345,50.9204369 135.423477,50.1345811 136.386134,50.1345811 L246.700618,50.1345811 C247.663275,50.1345811 248.451029,50.9204369 248.451029,51.8835225 C248.451029,52.8438604 247.663275,53.6297162 246.700618,53.6297162" id="Fill-34" fill="#A9A9AF" fill-rule="nonzero"></path>
                                <path d="M197.328135,60.9472432 L136.385996,60.9472432 C135.423339,60.9472432 134.635585,60.1613874 134.635585,59.1996757 C134.635585,58.237964 135.423339,57.4521081 136.385996,57.4521081 L197.328135,57.4521081 C198.290792,57.4521081 199.078546,58.237964 199.078546,59.1996757 C199.078546,60.1613874 198.290792,60.9472432 197.328135,60.9472432" id="Fill-36" fill="#A9A9AF" fill-rule="nonzero"></path>
                                <path d="M160.196412,19.0199099 C160.196412,20.6452027 158.875685,21.9627477 157.246466,21.9627477 L151.347952,21.9627477 C149.72011,21.9627477 148.399383,20.6452027 148.399383,19.0199099 L148.399383,8.23087838 C148.399383,3.91004505 151.931881,0.386058559 156.264528,0.386058559 L157.246466,0.386058559 C157.784949,0.386058559 158.229782,0.82981982 158.229782,1.36563063 L158.229782,3.32752252 C158.229782,3.86470721 157.784949,4.30846847 157.246466,4.30846847 L156.264528,4.30846847 C154.098205,4.30846847 152.331267,6.07114865 152.331267,8.23087838 L152.331267,8.72272523 C152.331267,9.53468468 152.992319,10.1927703 153.804863,10.1927703 L157.246466,10.1927703 C158.875685,10.1927703 160.196412,11.5103153 160.196412,13.1356081 L160.196412,19.0199099 Z M146.432752,19.0199099 C146.432752,20.6452027 145.112025,21.9627477 143.482806,21.9627477 L137.584291,21.9627477 C135.955073,21.9627477 134.634345,20.6452027 134.634345,19.0199099 L134.634345,8.23087838 C134.634345,3.91004505 138.168221,0.386058559 142.499491,0.386058559 L143.482806,0.386058559 C144.021288,0.386058559 144.466121,0.82981982 144.466121,1.36563063 L144.466121,3.32752252 C144.466121,3.86470721 144.021288,4.30846847 143.482806,4.30846847 L142.499491,4.30846847 C140.334544,4.30846847 138.567607,6.07114865 138.567607,8.23087838 L138.567607,8.72272523 C138.567607,9.53468468 139.227282,10.1927703 140.041202,10.1927703 L143.482806,10.1927703 C145.112025,10.1927703 146.432752,11.5103153 146.432752,13.1356081 L146.432752,19.0199099 Z" id="Stroke-38" stroke="#A9A9AF" stroke-width="2" stroke-linejoin="bevel"></path>
                            </g>
                        </g>
                    </g>
                    <g id="Zipify-mockup" transform="translate(112.000000, 41.000000)" fill-rule="nonzero">
                        <g id="Zipify-pages-screen">
                            <g id="Fill-1">
                                <use fill="#FFFFFF" fill-rule="evenodd" xlink:href="#path-1"></use>
                                <path stroke="#75757E" stroke-width="2" d="M3,345 L3,3 L342,3 L342,345 L3,345 Z"></path>
                            </g>
                            <polygon id="Fill-2" fill="#3BA949" points="44.6045641 16 32.7604447 16 27.3664131 16 26.5111761 21.4812086 26 24.766516 31.3954359 24.766516 31.9066121 21.4812086 43.7521358 21.4812086 41.8773552 33.5173673 38.6628438 33.5173673 37.8090111 39 41.0221182 39 46.4161498 39 47.2699824 33.5173673 49.144763 21.4812086 50 16"></polygon>
                            <polygon id="Fill-3" fill="#3BA949" points="35 33.3328715 29.6177877 33.3328715 30.4697494 28 25.0875371 28 25.0847346 28.0180118 24.2341741 33.3328715 18.853363 33.3328715 18 38.6671285 23.3836136 38.6671285 22.5316518 44 27.9124629 44 28.7658259 38.6671285 34.1494395 38.6671285"></polygon>
                            <polygon id="Fill-4" fill="#3BA949" points="4 55 341 55 341 52 4 52"></polygon>
                            <polygon id="Fill-5" fill="#FFFFFF" points="82 342 341 342 341 60 82 60"></polygon>
                            <polygon id="Fill-6" fill="#363636" points="4 84 341 84 341 55 4 55"></polygon>
                            <polygon id="Fill-7" fill="#363636" points="4 344 89 344 89 60 4 60"></polygon>
                            <polygon id="Fill-8" fill="#CCCCCC" points="184 259 253 259 253 159 184 159"></polygon>
                            <polygon id="Fill-9" fill="#CCCCCC" points="261 259 330 259 330 159 261 159"></polygon>
                            <polygon id="Fill-10" fill="#CCCCCC" points="106 259 175 259 175 159 106 159"></polygon>
                            <polygon id="Fill-11" fill="#CCCCCC" points="106 148 330 148 330 101 106 101"></polygon>
                            <polygon id="Fill-12" fill="#CCCCCC" points="106 330 330 330 330 269 106 269"></polygon>
                            <polygon id="Fill-13" fill="#595959" points="11 107 82 107 82 96 11 96"></polygon>
                            <polygon id="Fill-14" fill="#595959" points="11 132 82 132 82 121 11 121"></polygon>
                            <polygon id="Fill-15" fill="#595959" points="11 156 82 156 82 145 11 145"></polygon>
                            <polygon id="Fill-16" fill="#595959" points="11 180 82 180 82 169 11 169"></polygon>
                            <polygon id="Fill-17" fill="#595959" points="11 204 82 204 82 193 11 193"></polygon>
                            <polygon id="Fill-18" fill="#595959" points="11 228 82 228 82 217 11 217"></polygon>
                            <polygon id="Fill-19" fill="#595959" points="11 252 82 252 82 241 11 241"></polygon>
                            <polygon id="Fill-20" fill="#595959" points="11 276 82 276 82 265 11 265"></polygon>
                            <polygon id="Fill-21" fill="#595959" points="11 300 82 300 82 289 11 289"></polygon>
                            <polygon id="Fill-22" fill="#595959" points="11 324 82 324 82 313 11 313"></polygon>
                            <polygon id="Fill-23" fill="#3BA949" points="302 84 341 84 341 52 302 52"></polygon>
                        </g>
                    </g>
                    <g id="Pages-icon" transform="translate(373.000000, 265.000000)" fill-rule="nonzero">
                        <g id="Group-3" fill="#3BA949">
                            <path d="M163.999933,82.0000672 C163.999933,127.28692 127.287457,164.000067 81.9999328,164.000067 C36.7130803,164.000067 -6.72131147e-05,127.28692 -6.72131147e-05,82.0000672 C-6.72131147e-05,36.7125426 36.7130803,6.72131147e-05 81.9999328,6.72131147e-05 C127.287457,6.72131147e-05 163.999933,36.7125426 163.999933,82.0000672" id="Fill-1"></path>
                        </g>
                        <polygon id="Fill-4" fill="#FFFFFF" points="109.715609 43 76.1545402 43 60.8701489 43 58.4502945 58.2532829 57 67.3942175 72.2850655 67.3942175 73.73536 58.2532829 107.295754 58.2532829 101.983402 91.7460443 92.8777639 91.7460443 90.4585837 107 99.5635473 107 114.848613 107 117.268467 91.7460443 122.58082 58.2532829 125 43"></polygon>
                        <polygon id="Fill-6" fill="#FFFFFF" points="83 92.3335588 67.8018101 92.3335588 70.2079108 77 55.0097209 77 55.001676 77.0541105 52.6042906 92.3335588 37.4061007 92.3335588 35 107.666441 50.1981899 107.666441 47.7920892 123 62.9902791 123 65.3963798 107.666441 80.5938993 107.666441"></polygon>
                    </g>
                </g>
            </g>
        </g>
    </g>
</svg>